<?xml version="1.0" encoding="UTF-8" standalone="no"?>
<svg
   xmlns:dc="http://purl.org/dc/elements/1.1/"
   xmlns:cc="http://creativecommons.org/ns#"
   xmlns:rdf="http://www.w3.org/1999/02/22-rdf-syntax-ns#"
   xmlns:svg="http://www.w3.org/2000/svg"
   xmlns="http://www.w3.org/2000/svg"
   xmlns:sodipodi="http://sodipodi.sourceforge.net/DTD/sodipodi-0.dtd"
   xmlns:inkscape="http://www.inkscape.org/namespaces/inkscape"
   width="1921"
   height="905.499"
   viewBox="0 0 1921 905.499"
   version="1.1"
   id="svg12"
   sodipodi:docname="contactback.svg"
   inkscape:version="0.92.4 (5da689c313, 2019-01-14)">
  <metadata
     id="metadata16">
    <rdf:RDF>
      <cc:Work
         rdf:about="">
        <dc:format>image/svg+xml</dc:format>
        <dc:type
           rdf:resource="http://purl.org/dc/dcmitype/StillImage" />
        <dc:title />
      </cc:Work>
    </rdf:RDF>
  </metadata>
  <sodipodi:namedview
     pagecolor="#ffffff"
     bordercolor="#666666"
     borderopacity="1"
     objecttolerance="10"
     gridtolerance="10"
     guidetolerance="10"
     inkscape:pageopacity="0"
     inkscape:pageshadow="2"
     inkscape:window-width="1920"
     inkscape:window-height="1017"
     id="namedview14"
     showgrid="false"
     inkscape:zoom="0.42257084"
     inkscape:cx="934.91802"
     inkscape:cy="640.12347"
     inkscape:window-x="-8"
     inkscape:window-y="-8"
     inkscape:window-maximized="1"
     inkscape:current-layer="svg12" />
  <defs
     id="defs9">
    <linearGradient
       id="linear-gradient"
       x1="78.023705"
       y1="1285.347"
       x2="1274.597"
       y2="215.27042"
       gradientUnits="userSpaceOnUse"
       gradientTransform="matrix(1.4559663,0,0,0.59326006,-68.973279,123.05629)">
      <stop
         offset="0"
         stop-color="#ffaaca"
         id="stop2" />
      <stop
         offset="0.498"
         stop-color="#ffc2ff"
         id="stop4" />
      <stop
         offset="1"
         stop-color="#aae4ff"
         id="stop6" />
    </linearGradient>
  </defs>
  <path
     id="Subtraction_6"
     data-name="Subtraction 6"
     d="M 0.99961293,905.5 H 4.94277e-8 V 689.16706 C 3.5526244,687.13557 7.1102452,685.06432 10.574905,683.01034 c 15.194112,-9.00568 30.500183,-18.7631 45.501373,-29.00182 15.537977,-10.60772 31.198908,-22.03978 46.547972,-33.9808 15.86285,-12.33073 31.88765,-25.58516 47.61656,-39.39523 16.19371,-14.21016 32.58738,-29.43821 48.70513,-45.26164 16.59357,-16.28483 33.34809,-33.63601 49.81268,-51.57215 16.93647,-18.44944 34.07483,-38.07318 50.9393,-58.32683 a 620.8595,536.69331 0 0 1 40.14242,-43.25174 c 13.92162,-13.51194 28.93781,-26.69468 44.63073,-39.18266 15.32008,-12.19248 31.7217,-24.06522 48.74711,-35.28818 16.63055,-10.95766 34.28672,-21.57746 52.48568,-31.56561 17.7801,-9.76437 36.56782,-19.1891 55.84036,-28.02368 18.75573,-8.60125 38.54807,-16.89922 58.82621,-24.66318 19.67837,-7.53236 40.34436,-14.75538 61.4232,-21.46943 20.51106,-6.53178 41.92779,-12.74292 63.65536,-18.46068 21.11878,-5.5605 43.15727,-10.81855 65.50361,-15.62727 21.73356,-4.6748 44.26687,-9.0385 66.97407,-12.96842 22.10643,-3.82539 45.00758,-7.35438 68.0676,-10.48761 22.37139,-3.04164 45.51337,-5.79553 68.78334,-8.18477 44.23799,-4.5469 90.73589,-7.96788 138.20149,-10.16701 44.0179,-2.03842 89.9541,-3.07534 136.5361,-3.07534 36.8407,0 74.9259,0.64979 113.1992,1.93214 35.1913,1.17604 71.4874,2.92324 107.8782,5.19325 63.2226,3.95152 127.8953,9.55349 192.2254,16.65035 50.1628,5.53027 100.0455,11.95053 148.2627,19.08627 40.2055,5.94935 70.6865,11.13309 89.1765,14.43049 V 905.11202 H 0.99961293 v 0.38625 z"
     style="fill:url(#linear-gradient);stroke-width:0.92939037"
     inkscape:connector-curvature="0" />
</svg>
