<?xml version="1.0" encoding="UTF-8" standalone="no"?>
<svg
   xmlns:dc="http://purl.org/dc/elements/1.1/"
   xmlns:cc="http://creativecommons.org/ns#"
   xmlns:rdf="http://www.w3.org/1999/02/22-rdf-syntax-ns#"
   xmlns:svg="http://www.w3.org/2000/svg"
   xmlns="http://www.w3.org/2000/svg"
   xmlns:sodipodi="http://sodipodi.sourceforge.net/DTD/sodipodi-0.dtd"
   xmlns:inkscape="http://www.inkscape.org/namespaces/inkscape"
   width="954.262"
   height="969.463"
   viewBox="0 0 954.262 969.463"
   version="1.1"
   id="svg12"
   sodipodi:docname="Subtraction 9.svg"
   inkscape:version="0.92.4 (5da689c313, 2019-01-14)">
  <metadata
     id="metadata16">
    <rdf:RDF>
      <cc:Work
         rdf:about="">
        <dc:format>image/svg+xml</dc:format>
        <dc:type
           rdf:resource="http://purl.org/dc/dcmitype/StillImage" />
        <dc:title></dc:title>
      </cc:Work>
    </rdf:RDF>
  </metadata>
  <sodipodi:namedview
     pagecolor="#ffffff"
     bordercolor="#666666"
     borderopacity="1"
     objecttolerance="10"
     gridtolerance="10"
     guidetolerance="10"
     inkscape:pageopacity="0"
     inkscape:pageshadow="2"
     inkscape:window-width="1920"
     inkscape:window-height="1017"
     id="namedview14"
     showgrid="false"
     inkscape:zoom="0.48686747"
     inkscape:cx="10.558415"
     inkscape:cy="472.19102"
     inkscape:window-x="-8"
     inkscape:window-y="-8"
     inkscape:window-maximized="1"
     inkscape:current-layer="svg12" />
  <defs
     id="defs9">
    <linearGradient
       id="linear-gradient"
       x1="-3653.7771"
       y1="-9176.6366"
       x2="-4514.6171"
       y2="-8320.6058"
       gradientUnits="userSpaceOnUse"
       gradientTransform="matrix(0.99212908,0,0,0.99084978,4522.979,9174.6288)">
      <stop
         offset="0"
         stop-color="#ffaaca"
         id="stop2" />
      <stop
         offset="0.515"
         stop-color="#ffc2ff"
         id="stop4" />
      <stop
         offset="1"
         stop-color="#aae4ff"
         id="stop6" />
    </linearGradient>
  </defs>
  <path
     id="Subtraction_9"
     data-name="Subtraction 9"
     d="m 0,953.03143 v 0 V 0 H 2.809 C 61.4,0.05210169 116.741,0.09830508 167.784,0.90833898 224.439,1.8038982 269.636,3.5360339 310.022,6.3603389 c 46.471,3.2440679 86.9,8.0118651 123.6,14.5619321 19.5,3.48 38.374,7.55966 56.1,12.125932 18.287,4.709797 36.111,10.132305 52.977,16.116136 17.28,6.130304 34.228,13.087357 50.371,20.677492 a 531.365,522.35882 0 0 1 48.278,25.810982 559.235,549.75643 0 0 1 46.7,31.513657 c 15.326,11.49286 30.678,24.20764 45.63,37.7875 15.024,13.64671 30.189,28.66281 45.075,44.6305 14.9,15.98638 30.052,33.49845 45.034,52.0496 14.94,18.49905 30.25,38.69877 45.506,60.03688 15.152,21.19557 30.794,44.27366 46.49,68.59533 5.458,8.45423 10.4,16.97629 14.691,25.31945 a 251.925,247.65509 0 0 1 11.056,24.66769 212.646,209.04182 0 0 1 7.552,24.02184 186.5,183.33898 0 0 1 4.179,23.38186 171.416,168.51065 0 0 1 0.938,22.74976 166.368,163.54819 0 0 1 -2.173,22.12455 170.457,167.56789 0 0 1 -5.152,21.50424 183.642,180.52942 0 0 1 -8,20.8908 205.524,202.04055 0 0 1 -10.268,19.53421 c -3.783,6.34362 -8.045,12.72854 -12.667,18.98075 a 301.011,295.90912 0 0 1 -32.067,36.31193 424.881,417.67962 0 0 1 -40.263,34.15807 c -14.372,10.79782 -30.362,21.5809 -47.524,32.04745 -16.578,10.11166 -34.7,20.2007 -53.849,29.98306 -18.459,9.43728 -38.39,18.84508 -59.239,27.9727 -20.035,8.77275 -41.465,17.52191 -63.693,26.00466 -21.332,8.13866 -43.945,16.24097 -67.212,24.08474 -43.566,14.6799 -91.085,29.00687 -141.236,42.58182 -45.344,12.2734 -93.821,24.19976 -144.084,35.44882 C 183.189,920.74115 93.433,937.89539 0,953.02158 Z"
     style="fill:url(#linear-gradient);stroke-width:0.99148911"
     inkscape:connector-curvature="0" />
</svg>
