<?xml version="1.0" encoding="UTF-8" standalone="no"?>
<!-- Created with Inkscape (http://www.inkscape.org/) -->

<svg
   xmlns:dc="http://purl.org/dc/elements/1.1/"
   xmlns:cc="http://creativecommons.org/ns#"
   xmlns:rdf="http://www.w3.org/1999/02/22-rdf-syntax-ns#"
   xmlns:svg="http://www.w3.org/2000/svg"
   xmlns="http://www.w3.org/2000/svg"
   xmlns:xlink="http://www.w3.org/1999/xlink"
   xmlns:sodipodi="http://sodipodi.sourceforge.net/DTD/sodipodi-0.dtd"
   xmlns:inkscape="http://www.inkscape.org/namespaces/inkscape"
   width="186.50015mm"
   height="69.005066mm"
   viewBox="0 0 186.50015 69.005066"
   version="1.1"
   id="svg8"
   inkscape:version="0.92.4 (5da689c313, 2019-01-14)"
   sodipodi:docname="whitelogo.svg">
  <defs
     id="defs2">
    <linearGradient
       inkscape:collect="always"
       id="linearGradient871">
      <stop
         style="stop-color:#ffc502;stop-opacity:1"
         offset="0"
         id="stop867" />
      <stop
         id="stop886"
         offset="0.17029738"
         style="stop-color:#ffc502;stop-opacity:1" />
      <stop
         style="stop-color:#ffc502;stop-opacity:1"
         offset="0.4661324"
         id="stop888" />
      <stop
         id="stop890"
         offset="0.78082275"
         style="stop-color:#ff024a;stop-opacity:1" />
      <stop
         style="stop-color:#5447c8;stop-opacity:1"
         offset="1"
         id="stop869" />
    </linearGradient>
    <linearGradient
       inkscape:collect="always"
       xlink:href="#linearGradient871"
       id="linearGradient873"
       x1="101.95661"
       y1="45.724789"
       x2="150.3447"
       y2="116.40634"
       gradientUnits="userSpaceOnUse" />
    <linearGradient
       inkscape:collect="always"
       xlink:href="#linearGradient871"
       id="linearGradient997"
       gradientUnits="userSpaceOnUse"
       gradientTransform="matrix(2.0949126,0,0,2.0949126,-380.25659,31.718767)"
       x1="101.95661"
       y1="45.724789"
       x2="150.3447"
       y2="116.40634" />
  </defs>
  <sodipodi:namedview
     id="base"
     pagecolor="#ffffff"
     bordercolor="#666666"
     borderopacity="1.0"
     inkscape:pageopacity="0.0"
     inkscape:pageshadow="2"
     inkscape:zoom="1.4"
     inkscape:cx="293.47492"
     inkscape:cy="-15.858758"
     inkscape:document-units="mm"
     inkscape:current-layer="g845"
     showgrid="true"
     showguides="false"
     inkscape:window-width="1920"
     inkscape:window-height="1017"
     inkscape:window-x="-8"
     inkscape:window-y="-8"
     inkscape:window-maximized="1">
    <inkscape:grid
       type="xygrid"
       id="grid942"
       originx="-10.203095"
       originy="-186.92026" />
  </sodipodi:namedview>
  <metadata
     id="metadata5">
    <rdf:RDF>
      <cc:Work
         rdf:about="">
        <dc:format>image/svg+xml</dc:format>
        <dc:type
           rdf:resource="http://purl.org/dc/dcmitype/StillImage" />
        <dc:title></dc:title>
      </cc:Work>
    </rdf:RDF>
  </metadata>
  <g
     inkscape:label="Layer 1"
     inkscape:groupmode="layer"
     id="layer1"
     transform="translate(-10.203095,-41.074669)">
    <g
       id="g887"
       transform="matrix(0.90705877,0,0,0.90705877,24.054719,-0.61570234)">
      <g
         id="g845">
        <path
           inkscape:connector-curvature="0"
           id="path865"
           d="m 105.63929,50.695436 c -8.609955,2.6396 -33.945018,-13.231594 -46.449129,1.893108 -4.951807,5.989599 -24.668812,34.871473 -18.660779,43.929508 14.565863,21.960278 26.09266,-18.149136 60.135928,-16.924641 10.21867,0.367553 27.61438,-6.267032 32.73867,2.531408 2.03991,3.50256 2.63938,6.34792 2.93338,8.43333 0.0958,1.95303 0.18287,3.85802 -0.11959,5.0091 -0.78048,2.97034 -1.57058,4.063105 -2.79893,5.561161 -1.22834,1.49806 -2.09697,3.29138 -2.42371,5.29509 -1.90807,7.89247 5.48428,16.05168 13.52531,14.93395 8.09635,-0.51411 13.71924,-9.97914 10.27113,-17.33394 l -0.001,-0.003 c -1.08617,-2.58168 -3.36978,-4.236517 -5.83242,-5.571572 -1.74431,-1.03875 -4.18966,-1.585045 -6.30299,-3.953495 -1.38351,-1.55053 -1.56048,-1.826057 -2.95641,-4.392167 -1.4309,-3.18285 -1.00428,-6.184604 -0.006,-9.042631 1.16588,-3.337931 3.89796,-14.674911 2.61234,-20.033073 C 139.3662,48.778907 129.66464,43.329871 105.63931,50.695436 Z"
           style="opacity:1;fill:url(#linearGradient873);fill-opacity:1;stroke:none;stroke-width:1.61981666;stroke-linecap:round;stroke-miterlimit:4;stroke-dasharray:none;stroke-opacity:1"
           sodipodi:nodetypes="cssscccccccccccsssc" />
        <path
           inkscape:connector-curvature="0"
           style="fill:#ffffff;stroke-width:0.16933334"
           d="m 66.87759,121.99633 c -3.901435,-0.70005 -5.892651,-1.72029 -6.63563,-3.3999 -0.309721,-0.70016 -0.632834,-3.18346 -0.641335,-4.929 l -0.0044,-0.89708 1.039666,0.0504 1.039664,0.0504 0.22862,0.89586 c 1.012405,3.96717 3.940287,6.0177 8.190717,5.73634 2.025438,-0.13407 3.076827,-0.49142 3.968389,-1.34876 0.856678,-0.82381 1.202436,-1.81611 1.043818,-2.99569 -0.232325,-1.72773 -1.561717,-2.72521 -6.51824,-4.8908 -4.76325,-2.08114 -6.635401,-3.2663 -7.938844,-5.02563 -0.88751,-1.19792 -1.261209,-2.42962 -1.249084,-4.11696 0.02542,-3.538397 2.298053,-5.963527 6.714627,-7.165197 1.175079,-0.31972 1.792414,-0.36853 4.656667,-0.36822 2.759715,3.4e-4 3.557595,0.0593 4.858332,0.35901 2.565761,0.59129 4.291475,1.60174 4.954237,2.90087 0.38587,0.75636 0.686098,2.76989 0.686098,4.601427 v 1.34241 h -1.012774 c -0.968171,0 -1.017094,-0.0205 -1.110888,-0.46566 -0.221688,-1.05217 -0.963564,-2.718767 -1.56072,-3.506127 -1.411419,-1.86095 -3.196463,-2.65738 -5.967618,-2.66256 -3.234897,-0.006 -4.910667,1.29955 -4.910667,3.82589 0,2.245247 1.113207,3.195887 6.260865,5.346587 5.612765,2.34503 7.862174,3.91239 8.951839,6.23755 0.398119,0.84952 0.450375,1.16764 0.450494,2.74255 1.27e-4,1.67059 -0.0344,1.85171 -0.55428,2.90774 -1.005045,2.04153 -3.116841,3.52923 -6.218918,4.38104 -1.151367,0.31615 -1.875621,0.37929 -4.826,0.42071 -1.909234,0.0268 -3.661834,0.0146 -3.894667,-0.0272 z"
           id="path846" />
        <path
           inkscape:connector-curvature="0"
           style="fill:#ffffff;stroke-width:0.16933334"
           d="m 94.309591,121.99633 c -3.894051,-0.69872 -5.892851,-1.72074 -6.631629,-3.39085 -0.319654,-0.72262 -0.641614,-3.13461 -0.64677,-4.8453 l -0.0029,-0.97367 h 1.002313 1.002313 l 0.383562,1.29203 c 1.131199,3.81046 3.95596,5.69985 8.110482,5.42484 2.02616,-0.13412 3.077028,-0.49139 3.967258,-1.34876 1.40524,-1.3534 1.48419,-3.46138 0.17852,-4.76704 -0.846,-0.846 -2.336638,-1.66741 -5.681188,-3.13059 -1.636093,-0.71577 -3.473832,-1.58052 -4.083855,-1.92166 -3.953114,-2.21071 -5.468041,-4.65086 -5.033908,-8.10831 0.379224,-3.020137 2.679209,-5.179807 6.673837,-6.266677 1.175078,-0.31972 1.792413,-0.36853 4.656676,-0.36822 2.759708,3.4e-4 3.557588,0.0593 4.858328,0.35901 2.9879,0.68857 4.68661,1.86112 5.20873,3.59538 0.15884,0.52761 0.32424,1.86724 0.38156,3.090327 l 0.10118,2.159 h -1.03834 c -0.99607,0 -1.04234,-0.019 -1.13646,-0.46566 -0.22169,-1.05217 -0.96356,-2.718767 -1.56073,-3.506127 -1.41142,-1.86095 -3.19646,-2.65738 -5.967618,-2.66256 -3.234889,-0.006 -4.91066,1.29955 -4.91066,3.82589 0,2.258787 1.082152,3.182917 6.260858,5.346587 6.57635,2.74761 8.7149,4.48868 9.32548,7.59217 0.80956,4.11491 -1.63939,7.28811 -6.69634,8.67671 -1.15137,0.31615 -1.87563,0.37929 -4.825998,0.42071 -1.90924,0.0268 -3.661833,0.0146 -3.894666,-0.0272 z"
           id="path844" />
        <path
           inkscape:connector-curvature="0"
           style="fill:#ffffff;stroke-width:0.16933334"
           d="m 15.360972,104.78551 c -0.04656,-15.575977 -0.07226,-16.871507 -0.351091,-17.696637 -0.540842,-1.60049 -1.773257,-2.41169 -3.663943,-2.41169 h -0.687016 v -0.84667 -0.84667 H 23.58601 c 14.042477,0 13.878186,-0.0102 15.125672,0.94128 0.356242,0.27172 0.781521,0.84634 1.033119,1.3959 0.396181,0.86537 0.433785,1.16873 0.511282,4.12445 l 0.08365,3.19037 h -0.93063 -0.930631 l -0.09325,-1.22766 c -0.165381,-2.17725 -0.987833,-3.73617 -2.466289,-4.67475 -1.582495,-1.00462 -2.156377,-1.09085 -7.776341,-1.16853 l -5.122333,-0.0708 v 7.46554 7.465537 h 6.434666 6.434667 v 1.35466 1.35467 h -6.43467 -6.434666 v 9.22867 9.22866 h -3.804524 -3.804524 z"
           id="path838" />
        <path
           inkscape:connector-curvature="0"
           style="fill:#ffffff;stroke-width:0.16933334"
           d="m 46.009869,110.37351 c -0.05269,-10.28059 -0.08312,-11.295437 -0.364036,-12.140747 -0.53881,-1.62132 -1.660464,-2.37644 -3.533244,-2.37864 l -0.804333,-9.4e-4 v -0.95288 -0.95288 l 4.360334,0.0867 c 5.027037,0.0999 5.583858,0.21464 6.556578,1.35105 1.326051,1.54919 1.441313,2.80725 1.443033,15.750377 l 0.0014,10.45633 h -3.801125 -3.801113 z"
           id="path836" />
        <path
           inkscape:connector-curvature="0"
           style="fill:#ffffff;stroke-width:0.16933334"
           d="m 116.45527,110.20418 c -0.0463,-10.438747 -0.0755,-11.450767 -0.35112,-12.144847 -0.58395,-1.4706 -1.70003,-2.19605 -3.3884,-2.20244 l -0.98252,-0.004 0.0512,-0.889 0.0512,-0.889 4.23333,0.0106 c 5.00401,0.0126 5.41465,0.0906 6.52797,1.23961 1.4458,1.4922 1.40622,1.10167 1.47364,14.540077 l 0.0588,11.72633 h -3.81182 -3.81183 l -0.0504,-11.38767 z"
           id="path834" />
        <path
           inkscape:connector-curvature="0"
           style="fill:#ffffff;stroke-width:0.16933334"
           d="m 164.54336,110.37351 c -0.0496,-10.06174 -0.0853,-11.307587 -0.34617,-12.084047 -0.55445,-1.65015 -1.60538,-2.42549 -3.29726,-2.43257 l -0.889,-0.004 v -0.95459 -0.95458 l 3.76767,0.0973 c 2.13848,0.0553 4.09174,0.18731 4.5171,0.30541 0.49061,0.1362 1.04257,0.49059 1.5982,1.02615 0.84141,0.81101 0.85179,0.81531 1.1979,0.4959 0.6562,-0.60557 2.57521,-1.53814 3.91817,-1.90409 1.12499,-0.30655 1.80648,-0.36622 4.2203,-0.36952 3.26232,-0.004 4.6696,0.26993 6.56575,1.28015 2.01567,1.0739 3.27741,2.70139 4.04042,5.211707 0.37992,1.24991 0.38676,1.42518 0.44411,11.38712 l 0.0583,10.11766 h -3.81114 -3.81113 l -0.0524,-10.11766 c -0.0515,-9.94014 -0.059,-10.13724 -0.42899,-11.23275 -0.70453,-2.086057 -2.00365,-3.323167 -3.91505,-3.728187 -1.38251,-0.29295 -3.57377,0.006 -4.98685,0.68044 -1.51411,0.72262 -1.55746,0.795 -1.32382,2.20988 0.13042,0.789657 0.19348,4.596717 0.19348,11.679897 v 10.50838 h -3.80212 -3.80214 z"
           id="path832" />
        <path
           style="opacity:1;fill:#ff1244;fill-opacity:1;stroke:none;stroke-width:5.29166651;stroke-linecap:round;stroke-miterlimit:4;stroke-dasharray:none;stroke-opacity:1"
           d="m 145.25624,85.8625 c 1.07114,1.189386 0.36777,2.233666 -0.43647,2.236209 -1.21773,0.004 -1.84515,0.02579 -2.76263,-2.17e-4 -0.83127,-0.0236 -1.17318,-0.798347 -0.57953,-1.58356 0.45121,-0.596741 1.21363,-1.00069 1.76928,-1.339428 0.45346,-0.27648 1.0819,-0.253983 1.55658,0.200746"
           id="path931"
           inkscape:connector-curvature="0"
           sodipodi:nodetypes="cssssc" />
        <path
           sodipodi:nodetypes="cssssc"
           inkscape:connector-curvature="0"
           id="path938"
           d="m 122.41998,85.225015 c 2.22474,2.47018 0.76389,4.639079 -0.90647,4.64441 -2.52911,0.0081 -3.83222,0.05369 -5.73774,-4.19e-4 -1.7265,-0.04904 -2.43661,-1.658102 -1.20363,-3.288946 0.93705,-1.239422 2.52059,-2.078318 3.67461,-2.781877 0.94183,-0.57419 2.24698,-0.527605 3.23285,0.416939"
           style="opacity:1;fill:#ffffff;fill-opacity:1;stroke:none;stroke-width:10.99030399;stroke-linecap:round;stroke-miterlimit:4;stroke-dasharray:none;stroke-opacity:1" />
        <path
           style="opacity:1;fill:#ffffff;fill-opacity:1;stroke:none;stroke-width:10.99030399;stroke-linecap:round;stroke-miterlimit:4;stroke-dasharray:none;stroke-opacity:1"
           d="m 51.92742,85.225015 c 2.22474,2.47018 0.76389,4.639079 -0.90647,4.64441 -2.52911,0.0081 -3.83222,0.05369 -5.73774,-4.19e-4 -1.7265,-0.04904 -2.43661,-1.658102 -1.20363,-3.288946 0.93705,-1.239422 2.52059,-2.078318 3.67461,-2.781877 0.94183,-0.57419 2.24698,-0.527605 3.23285,0.416939"
           id="path940"
           inkscape:connector-curvature="0"
           sodipodi:nodetypes="cssssc" />
        <path
           style="fill:#ffffff;stroke-width:0.10429278"
           d="M -0.49118391,119.24026 H -8.65524 l -3e-6,1.36693 3e-6,1.36695 h -3.294271 -3.294272 v -4.55647 -4.55645 h 3.294272 3.294271 l -3e-6,1.36694 v 1.36692 h 8.16405909 8.16405541 v 1.82259 1.82259 z M -3.7854537,111.57023 H -15.243783 v -1.82261 -1.82259 h 4.082032 4.0820251 l 3e-6,-0.4936 v -0.49362 h 3.0078122 3.0078071 v 0.49362 l 5e-6,0.4936 h 4.3684845 4.3684856 v 1.82259 1.82261 z m 0,-5.23996 H -15.243783 v -1.82258 -1.82258 H -3.7854537 7.6728715 v 1.82258 1.82258 z M 7.5140225,97.502313 c -0.5260957,1.674018 -2.4014935,2.730257 -5.283854,2.975937 -0.5259207,0.0448 -3.20560108,0.0791 -6.1588522,0.0786 -5.6655077,-7.4e-4 -6.5379873,-0.0464 -7.9623973,-0.41587 -0.853192,-0.221298 -2.033944,-0.851724 -2.499354,-1.334419 -0.671391,-0.696354 -0.746133,-0.986606 -0.815027,-3.164986 l -0.06546,-2.069398 h 3.307829 3.307833 v 1.33141 c 0,1.501839 0.1315339,1.81555 0.7984354,1.904291 0.5288907,0.07034 1.0922414,-0.04805 1.3090374,-0.275264 0.122866,-0.128739 0.1806506,-0.592194 0.1820796,-1.460602 l 0.002,-1.272012 h 2.5781209 2.5781245 v 1.44634 c 0,1.434361 0.0029,1.447869 0.35156562,1.632722 0.44540667,0.236171 1.24197434,0.252793 1.65363801,0.03447 C 1.0660041,96.771295 1.0842091,96.660405 1.0842091,95.166893 v -1.594759 h 3.2942862 3.2942682 l -0.01678,1.76564 c -0.0093,0.971088 -0.07316,1.945117 -0.142098,2.164516 z"
           id="path873"
           inkscape:connector-curvature="0" />
      </g>
    </g>
  </g>
</svg>
